<?xml version="1.0" encoding="utf-8"?>
<!-- Generator: Adobe Illustrator 19.1.0, SVG Export Plug-In . SVG Version: 6.00 Build 0)  -->
<svg version="1.1" id="Capa_1" xmlns="http://www.w3.org/2000/svg" xmlns:xlink="http://www.w3.org/1999/xlink" x="0px" y="0px"
	 viewBox="273.9 -168.1 1266.7 404.2" style="enable-background:new 273.9 -168.1 1266.7 404.2;" xml:space="preserve">
<style type="text/css">
	.st0{fill:#70FF8F;}
</style>
<g>
	<g>
		<path class="st0" d="M499.3,52.5c0-12-9.7-21.7-21.7-21.7s-21.7,9.7-21.7,21.7c0,11.9,9.7,21.7,21.7,21.7
			C489.5,74.2,499.3,64.4,499.3,52.5z"/>
		<circle class="st0" cx="599.6" cy="52.4" r="21.7"/>
		<path class="st0" d="M538.5,139.7c25.7,0,47.1-17.9,53.9-40.8H484.6C491.4,121.8,512.8,139.7,538.5,139.7z"/>
		<path class="st0" d="M786-141.9c-53.9-58-108.3-5.5-129.7,20.6c-33.8-26.2-76.1-41.8-122.1-41.8c-48.3,0-92.7,17.3-127.3,46
			c-18.6-23.9-76.1-86-133-24.7c0,0,18.9,66.2,101.8,57.1c-25.8,33.6-41.2,75.6-41.2,121.2c0,110,89.5,199.6,199.6,199.6
			s199.6-89.5,199.6-199.6c0-45.3-15.1-87-40.6-120.5C768.5-80.5,786-141.9,786-141.9z M534.3,187.4c-83.2,0-150.9-67.7-150.9-150.9
			c0-11,1.2-21.8,3.5-32.1h96.4l-0.4-40.6l41.4,40.6h157.5c2.2,10.4,3.5,21.1,3.5,32.1C685.2,119.7,617.5,187.4,534.3,187.4z"/>
	</g>
</g>
<g>
	<path class="st0" d="M869.2,60.6V2.4c0-41.5,17-62.3,51-62.3c7.2,0,13.5,1,19.1,2.9c5.6,1.9,10.2,4.6,14,8
		c3.8,3.4,6.9,7.6,9.3,12.5c2.4,4.9,4.2,10.3,5.3,16.1c1.1,5.8,1.6,12.2,1.6,19.1v15.1h-35V-2.4c0-3.2-0.1-5.9-0.2-8.3
		c-0.1-2.3-0.5-4.9-1-7.9c-0.6-3-1.3-5.4-2.2-7.2c-0.9-1.9-2.3-3.4-4.2-4.7c-1.9-1.3-4.1-2-6.7-2c-10.3,0-15.4,8.7-15.4,26v75.9
		c0,17.3,5.1,25.9,15.4,25.9c3.1,0,5.6-0.9,7.7-2.6c2.1-1.8,3.6-4.2,4.5-7.5c0.9-3.2,1.5-6.4,1.9-9.5c0.3-3.1,0.5-6.6,0.5-10.6V47
		h34.8v14.8c-0.1,6.7-0.7,12.9-1.7,18.6s-2.6,11.2-5,16.5c-2.3,5.3-5.3,9.8-8.9,13.5c-3.6,3.7-8.3,6.6-14,8.9
		c-5.7,2.2-12.3,3.4-19.7,3.4c-7.6,0-14.4-1.1-20.3-3.3c-5.9-2.2-10.7-5.1-14.6-8.8c-3.8-3.7-7-8.2-9.4-13.6
		c-2.5-5.4-4.2-11-5.2-16.9C869.7,74.2,869.2,67.7,869.2,60.6z"/>
	<path class="st0" d="M985,119.3V-56.5h32.9v175.8H985z"/>
	<path class="st0" d="M1087.8,119.3l-3.2-13.2c-1.9,5.9-5,10.1-9.3,12.5c-4.3,2.4-9.6,3.6-16,3.6c-4.7,0-8.8-0.9-12.3-2.7
		c-3.5-1.8-6.3-4.3-8.3-7.4c-2-3.1-3.5-6.4-4.4-10c-0.9-3.5-1.4-7.3-1.4-11.2c0-4.4,0.5-8.5,1.4-12.3c0.9-3.8,2.1-7.1,3.5-10
		c1.4-2.9,3.4-5.7,5.9-8.3c2.5-2.7,4.9-4.9,7.3-6.8c2.4-1.9,5.4-3.8,9.1-5.8c3.7-2,7-3.6,10-5c2.9-1.3,6.6-2.9,11-4.7V27.2
		c0-4.5-0.6-7.8-1.7-10.1c-1.1-2.2-3-3.3-5.7-3.3c-1.8,0-3.3,0.4-4.4,1.1c-1.1,0.7-1.9,1.9-2.4,3.4c-0.5,1.5-0.7,2.8-0.9,4.1
		c-0.1,1.2-0.2,2.8-0.2,4.8v7.2h-31.9c0-14.6,3.7-25.9,11-33.7c7.4-7.8,18-11.8,32-11.8c9.8,0,18.3,3.5,25.7,10.6
		c7.4,7.1,11,15.5,11,25.3v60.5c0,10.5,1.4,21.8,4.2,33.9H1087.8z M1081.2,90.5V59.1c-10.8,8.7-16.2,18.3-16.2,28.7
		c0,2.6,0.5,4.8,1.5,6.7c1,1.9,2.7,2.8,5.1,2.8c1.4,0,2.7-0.4,4.1-1.3c1.3-0.9,2.3-1.6,2.9-2.3C1079.1,93.1,1080,92,1081.2,90.5z"/>
	<path class="st0" d="M1131.8,119.3V-8.1h32.7V2.2c5-8.1,10.9-12.2,17.6-12.2c1.9,0,4.8,0.3,8.9,1v27.7c-6.1-0.6-10.3-1-12.8-1
		c-4.5,0-7.9,1.4-10.2,4.2c-2.3,2.8-3.5,6.7-3.5,11.9v85.5H1131.8z"/>
	<path class="st0" d="M1250.4,119.3l-3.2-13.2c-1.9,5.9-5,10.1-9.3,12.5c-4.3,2.4-9.6,3.6-16,3.6c-4.7,0-8.8-0.9-12.3-2.7
		c-3.5-1.8-6.3-4.3-8.3-7.4c-2-3.1-3.5-6.4-4.4-10c-0.9-3.5-1.4-7.3-1.4-11.2c0-4.4,0.5-8.5,1.4-12.3c0.9-3.8,2.1-7.1,3.5-10
		c1.4-2.9,3.4-5.7,5.9-8.3c2.5-2.7,4.9-4.9,7.3-6.8c2.4-1.9,5.4-3.8,9.1-5.8c3.7-2,7-3.6,10-5c2.9-1.3,6.6-2.9,11-4.7V27.2
		c0-4.5-0.6-7.8-1.7-10.1c-1.1-2.2-3-3.3-5.7-3.3c-1.8,0-3.3,0.4-4.4,1.1c-1.1,0.7-1.9,1.9-2.4,3.4c-0.5,1.5-0.7,2.8-0.9,4.1
		c-0.1,1.2-0.2,2.8-0.2,4.8v7.2h-31.9c0-14.6,3.7-25.9,11-33.7c7.4-7.8,18-11.8,32-11.8c9.8,0,18.3,3.5,25.7,10.6
		c7.4,7.1,11,15.5,11,25.3v60.5c0,10.5,1.4,21.8,4.2,33.9H1250.4z M1243.8,90.5V59.1c-10.8,8.7-16.2,18.3-16.2,28.7
		c0,2.6,0.5,4.8,1.5,6.7c1,1.9,2.7,2.8,5.1,2.8c1.4,0,2.7-0.4,4.1-1.3c1.3-0.9,2.3-1.6,2.9-2.3C1241.7,93.1,1242.6,92,1243.8,90.5z"
		/>
	<path class="st0" d="M1294.5,119.3V-56.5h32.9V0.5c2.7-3.5,5.8-6.2,9.5-8.3c3.7-2.1,7.6-3.2,11.7-3.2c7.5,0,13.8,3.1,18.8,9.3
		c5.1,6.2,7.6,13.3,7.6,21.4v75.3c0,7.3-2.4,13.7-7.3,19.1s-10.9,8.2-18.2,8.2c-4.4,0-8.5-1.1-12.4-3.3s-7.2-5.2-9.8-9.1v9.6H1294.5
		z M1342.1,88.1V22.2c0-5.6-1.8-8.4-5.5-8.4c-1.2,0-2.5,0.6-3.9,1.7c-1.4,1.1-2.4,2-2.9,2.6c-0.5,0.7-1.4,1.8-2.5,3.3v68l0.6,0.8
		c0.3,0.5,0.6,0.8,0.7,1c0.1,0.1,0.4,0.5,0.8,1c0.4,0.5,0.7,0.9,0.9,1.1c0.2,0.2,0.5,0.6,0.9,1c0.4,0.5,0.7,0.8,1,1s0.6,0.5,1,0.8
		c0.4,0.3,0.8,0.6,1.1,0.7c0.4,0.1,0.7,0.3,1.1,0.4c0.4,0.1,0.8,0.2,1.2,0.2c1.6,0,2.8-0.5,3.7-1.6c0.9-1,1.4-2.1,1.6-3.3
		C1342,91.4,1342.1,89.9,1342.1,88.1z"/>
	<path class="st0" d="M1390.4,86.2V32c0-13.6,3.2-24.2,9.6-31.7c6.4-7.5,16.4-11.3,30-11.3c13.6,0,23.7,3.8,30.3,11.3
		c6.6,7.5,9.9,18.1,9.9,31.7v54.2c0,10.6-3.9,19.3-11.8,25.9c-7.9,6.7-17.3,10-28.3,10c-7.1,0-13.6-1.4-19.6-4.3
		c-6-2.9-10.8-7.1-14.5-12.7C1392.2,99.5,1390.4,93.2,1390.4,86.2z M1437.5,86.6V23.5c0-6.4-2.5-9.7-7.5-9.7c-4.5,0-6.7,3.2-6.7,9.7
		v63.1c0,1.4,0,2.6,0.1,3.6c0.1,0.9,0.3,2.1,0.7,3.3s1.1,2.2,2.1,2.9c1,0.7,2.2,1,3.8,1C1435,97.3,1437.5,93.7,1437.5,86.6z"/>
	<path class="st0" d="M1489.2,75.6V13.8h-9.4v-22h9.4V-50h32.9v41.9h15.8v22h-15.8v69.6c0,3.5,0.7,6.1,2,7.9
		c1.3,1.7,3.6,2.6,6.9,2.6c3.8,0,7-0.2,9.6-0.6v25.5c-4.3,1.3-11.2,2-20.8,2c-3.8,0-7.3-0.5-10.4-1.4c-3.1-0.9-5.7-2.1-7.8-3.7
		c-2.1-1.5-3.9-3.5-5.5-5.8c-1.5-2.3-2.7-4.7-3.6-7.2s-1.6-5.3-2.1-8.5c-0.5-3.3-0.8-6.3-1-9.1C1489.3,82.3,1489.2,79.1,1489.2,75.6
		z"/>
</g>
</svg>
